<?xml version="1.0" encoding="UTF-8"?>
<svg xmlns="http://www.w3.org/2000/svg" xmlns:xlink="http://www.w3.org/1999/xlink" width="28px" height="28px" viewBox="0 0 28 28" version="1.1">
<g id="surface1">
<path style=" stroke:none;fill-rule:nonzero;fill:rgb(0%,0%,0%);fill-opacity:1;" d="M 2.601562 16.429688 L 12.484375 25.652344 C 12.894531 26.035156 13.4375 26.25 14 26.25 C 14.5625 26.25 15.105469 26.035156 15.515625 25.652344 L 25.398438 16.429688 C 27.058594 14.878906 28 12.710938 28 10.441406 L 28 10.121094 C 28 6.300781 25.238281 3.039062 21.46875 2.410156 C 18.976562 1.996094 16.4375 2.8125 14.65625 4.59375 L 14 5.25 L 13.34375 4.59375 C 11.5625 2.8125 9.023438 1.996094 6.53125 2.410156 C 2.761719 3.039062 0 6.300781 0 10.121094 L 0 10.441406 C 0 12.710938 0.941406 14.878906 2.601562 16.429688 Z M 2.601562 16.429688 "/>
</g>
</svg>
